# xmcd
#
# Track frame offsets:
#	150
#	12072
#	34530
#	53635
#	68115
#	83000
#	100942
#	112792
#	127152
#	139935
#	153315
#	173582
#	191455
#	207022
#	216102
#	230107
#	250852
#
# Disc length: 3579
#
# Revision: 1
# Processed by: cddbd v1.5.1PL0 Copyright (c) Steve Scherf et al.
# Submitted via: CDex 1.51
# Normalized: r0:DSETVAR1,TDELIM( - )
#
DISCID=db0df911
DTITLE=Various Artist - Ford - Millenium Jazz
DYEAR=1900
DGENRE=Jazz
TTITLE0=Glenn Miller - I've got a girl in Kalamazo
TTITLE1=Glenn Miller - Tuxedo Junction
TTITLE2=Count Basie and His Orchestra - One o'clock jump
TTITLE3=Woody Herman - Woodchoppers Ball
TTITLE4=Tommy Dorsey and His Orchestra - On the sunny side of the street
TTITLE5=Duke Ellington - Tea for two
TTITLE6=Peegy Lee With the Dave Barbour Band - I'm beginning to see the light
TTITLE7=Peegy Lee With the Dave Barbour Band - September in the rain
TTITLE8=Sarah Vaughan - What a difference a day makes
TTITLE9=Sarah Vaughan - Move me or leave me
TTITLE10=Billy Hauday - (I don't stand) a ghost of a chance with you
TTITLE11=Louis Armstrong - Cabaret
TTITLE12=Louis Armstrong - Mack the knife
TTITLE13=Ella Fitzgerald - Lover come back to me
TTITLE14=Ella Fitzgerald - Basin street blues
TTITLE15=Charles Neville and Diversity - Diverse
TTITLE16=Charles Neville and Diversity - Summertime
EXTD=
EXTT0=
EXTT1=
EXTT2=
EXTT3=
EXTT4=
EXTT5=
EXTT6=
EXTT7=
EXTT8=
EXTT9=
EXTT10=
EXTT11=
EXTT12=
EXTT13=
EXTT14=
EXTT15=
EXTT16=
PLAYORDER=
